<?xml version="1.0" standalone="no"?>
<!DOCTYPE svg PUBLIC "-//W3C//DTD SVG 20010904//EN"
 "http://www.w3.org/TR/2001/REC-SVG-20010904/DTD/svg10.dtd">
<svg version="1.0" xmlns="http://www.w3.org/2000/svg"
 width="842.000000pt" height="842.000000pt" viewBox="0 0 842.000000 842.000000"
 preserveAspectRatio="xMidYMid meet">
<metadata>
Created by potrace 1.14, written by Peter Selinger 2001-2017
</metadata>
<g transform="translate(0.000000,842.000000) scale(0.100000,-0.100000)"
fill="#000000" stroke="none">
<path d="M4092 7063 c-79 -142 -98 -173 -110 -185 -7 -7 -12 -16 -12 -20 0 -9
-223 -396 -240 -415 -5 -7 -10 -15 -10 -19 0 -6 -51 -95 -89 -154 -8 -14 -16
-27 -16 -30 -1 -5 -111 -194 -176 -303 -16 -26 -29 -49 -29 -51 0 -2 -18 -34
-41 -71 -22 -37 -50 -84 -61 -104 -78 -139 -154 -267 -160 -269 -5 -2 -8 -7
-8 -12 0 -4 -32 -63 -72 -131 -39 -68 -78 -135 -85 -149 -8 -14 -23 -38 -33
-55 -10 -16 -25 -41 -33 -55 -51 -95 -142 -246 -149 -251 -6 -3 -10 -10 -10
-15 0 -5 -12 -29 -26 -54 -63 -112 -137 -235 -142 -240 -3 -3 -14 -21 -23 -40
-10 -19 -27 -48 -37 -65 -11 -16 -26 -43 -34 -60 -9 -16 -36 -64 -61 -105 -25
-41 -48 -83 -52 -92 -3 -10 -9 -18 -14 -18 -5 0 -9 -9 -9 -20 0 -11 -4 -20 -8
-20 -4 0 -26 -34 -47 -75 -22 -41 -43 -75 -47 -75 -5 0 -8 -5 -8 -11 0 -6 -33
-65 -72 -132 -40 -67 -78 -131 -84 -142 -6 -11 -37 -65 -69 -120 -32 -55 -74
-127 -92 -160 -19 -33 -56 -98 -84 -144 -27 -46 -49 -88 -49 -92 0 -5 -4 -9
-10 -9 -5 0 -10 -5 -10 -10 0 -9 -26 -55 -126 -222 -19 -31 -34 -61 -34 -67 0
-6 -4 -11 -10 -11 -5 0 -10 -4 -10 -9 0 -5 -43 -82 -95 -171 -52 -89 -95 -164
-95 -167 0 -3 -8 -17 -19 -31 -10 -15 -29 -47 -43 -72 -22 -38 -71 -124 -148
-255 -10 -16 -42 -73 -72 -125 -30 -52 -66 -114 -81 -137 -15 -24 -27 -44 -27
-47 0 -3 -57 -102 -90 -156 -5 -8 -26 -44 -47 -80 -21 -36 -43 -74 -50 -85 -7
-11 -18 -31 -25 -45 -7 -14 -15 -27 -18 -30 -3 -3 -12 -18 -20 -35 -8 -16 -19
-33 -25 -37 -5 -4 -7 -10 -3 -13 5 -5 6629 -10 6756 -5 10 0 5 15 -14 48 -104
176 -194 335 -194 343 0 5 -4 9 -9 9 -5 0 -11 8 -14 18 -4 9 -18 37 -33 62
-15 25 -35 59 -44 75 -9 17 -31 54 -49 83 -17 29 -31 57 -31 62 0 6 -4 10 -9
10 -5 0 -11 8 -15 18 -3 9 -10 24 -15 32 -51 81 -101 170 -101 179 0 6 -4 11
-10 11 -5 0 -10 5 -10 11 0 8 -46 91 -100 179 -5 8 -37 64 -72 124 -35 60 -78
134 -96 165 -18 31 -40 72 -50 91 -9 19 -23 39 -29 43 -7 4 -13 13 -13 18 0 6
-31 63 -69 127 -38 64 -78 133 -88 152 -11 19 -50 86 -87 148 -36 62 -66 115
-66 118 0 3 -16 31 -37 62 -34 53 -60 99 -104 180 -9 18 -22 38 -27 45 -5 7
-21 32 -34 57 -14 25 -49 86 -78 135 -29 50 -64 110 -78 135 -13 25 -28 50
-32 55 -4 6 -19 30 -32 55 -14 25 -71 123 -127 218 -55 95 -101 177 -101 183
0 5 -4 9 -10 9 -5 0 -10 4 -10 9 0 4 -23 48 -52 97 -28 49 -57 100 -65 114 -8
14 -25 43 -39 65 -13 22 -30 51 -36 65 -7 14 -17 32 -24 40 -6 8 -24 38 -39
65 -14 28 -37 68 -51 90 -13 22 -30 51 -37 65 -6 14 -17 31 -24 38 -7 7 -13
20 -13 28 0 8 -4 14 -9 14 -5 0 -11 8 -14 18 -4 9 -18 37 -33 62 -97 165 -124
211 -124 214 0 3 -16 28 -35 57 -19 30 -35 58 -35 63 0 5 -6 17 -14 25 -8 9
-26 39 -40 66 -28 52 -31 57 -83 142 -18 30 -33 55 -33 57 0 2 -30 55 -67 117
-36 63 -73 128 -82 144 -9 17 -19 32 -23 33 -5 2 -8 7 -8 12 0 4 -18 38 -40
74 -22 36 -40 70 -40 76 0 5 -4 10 -8 10 -5 0 -14 16 -22 35 -8 19 -17 35 -22
35 -4 0 -8 4 -8 9 0 5 -20 44 -45 85 -25 42 -45 81 -45 86 0 6 -4 10 -10 10
-5 0 -10 4 -10 9 0 4 -29 59 -65 120 -36 62 -65 116 -65 122 0 5 -3 9 -8 9 -4
0 -18 21 -32 48 -14 26 -34 61 -45 78 -11 17 -24 39 -30 48 -8 14 -15 8 -43
-41z"/>
</g>
</svg>
